<svg xmlns="http://www.w3.org/2000/svg" viewBox="0 0 320 400" role="img" aria-labelledby="title desc">
  <title id="title">Encouraging Rabbit</title><desc id="desc">A cream rabbit smiles and gives a thumbs-up.</desc>
  <defs><linearGradient id="fur" x2="1" y2="1"><stop stop-color="#fffaf0"/><stop offset="1" stop-color="#f2dfbd"/></linearGradient><linearGradient id="pink" x2="1" y2="1"><stop stop-color="#ff7868"/><stop offset="1" stop-color="#ef5b52"/></linearGradient></defs>
  <g stroke="#ead2aa" stroke-width="3" stroke-linejoin="round">
    <ellipse fill="url(#fur)" cx="102" cy="92" rx="38" ry="82" transform="rotate(-17 102 92)"/><ellipse fill="url(#fur)" cx="221" cy="94" rx="38" ry="82" transform="rotate(17 221 94)"/>
    <ellipse fill="url(#pink)" stroke="none" cx="105" cy="91" rx="18" ry="58" transform="rotate(-17 105 91)"/><ellipse fill="url(#pink)" stroke="none" cx="218" cy="93" rx="18" ry="58" transform="rotate(17 218 93)"/>
    <ellipse fill="url(#fur)" cx="164" cy="287" rx="82" ry="98"/><circle fill="url(#fur)" cx="165" cy="187" r="100"/><ellipse fill="#fff8e8" stroke="none" cx="164" cy="300" rx="45" ry="61"/>
    <path fill="url(#fur)" d="M102 252c-27 7-43 22-51 43-5 13-1 30 12 35 13 5 27-3 31-16 4-12 11-20 24-25zM220 258c22 5 37 17 47 34 8 13 5 30-7 37-12 7-27 1-34-11-5-9-12-15-22-18z"/>
    <ellipse fill="url(#fur)" cx="119" cy="374" rx="52" ry="21"/><ellipse fill="url(#fur)" cx="211" cy="374" rx="52" ry="21"/><circle fill="url(#fur)" cx="249" cy="304" r="26"/>
  </g>
  <g fill="#073e43"><ellipse cx="127" cy="181" rx="22" ry="31"/><ellipse cx="205" cy="181" rx="22" ry="31"/><circle fill="white" cx="120" cy="171" r="7"/><circle fill="white" cx="198" cy="171" r="7"/><path d="M116 143q12-12 25-2M190 141q13-8 24 5" fill="none" stroke="#073e43" stroke-width="7" stroke-linecap="round"/><path d="M145 226q19 22 39 0q-2 32-20 32t-19-32"/></g>
  <path fill="url(#pink)" d="M151 214q14-12 28 0q-14 18-28 0"/><g stroke="#f16a5d" stroke-width="5" stroke-linecap="round"><path d="M78 209l31 7M80 225l29 1M251 209l-30 7M249 225l-28 1"/></g>
  <g transform="translate(29 251) rotate(-18)"><path fill="url(#fur)" stroke="#ead2aa" stroke-width="3" d="M33 55c-13-1-22-10-21-22 1-10 8-17 18-18l4-17c2-9 13-14 21-9 6 4 8 10 6 17l-2 8h14c14 0 24 12 22 26l-3 18c-2 12-12 20-24 20H45c-7 0-12-4-12-11z"/><path fill="none" stroke="#ead2aa" stroke-width="3" d="M38 19l21-5M34 34h28M34 48h25"/></g>
  <g fill="#ff6d5f"><path d="M31 238l-17-10 8-8zM39 222l-7-18 12-1z"/></g>
</svg>
